<?xml version="1.0" standalone="no"?>
<!DOCTYPE svg PUBLIC "-//W3C//DTD SVG 20010904//EN"
 "http://www.w3.org/TR/2001/REC-SVG-20010904/DTD/svg10.dtd">
<svg version="1.0" xmlns="http://www.w3.org/2000/svg"
 width="1024.000000pt" height="667.000000pt" viewBox="0 0 1024.000000 667.000000"
 preserveAspectRatio="xMidYMid meet">

<g transform="translate(0.000000,667.000000) scale(0.100000,-0.100000)"
fill="#000000" stroke="none">
<path d="M1314 6105 c0 -49 1 -71 3 -48 2 23 2 64 0 90 -2 26 -3 8 -3 -42z"/>
<path d="M3744 6105 c0 -49 1 -71 3 -48 2 23 2 64 0 90 -2 26 -3 8 -3 -42z"/>
<path d="M1888 6163 c6 -2 10 -9 6 -14 -3 -5 0 -9 5 -9 6 0 11 -5 11 -11 0 -6
-9 -9 -20 -6 -11 3 -18 1 -14 -4 7 -11 31 -12 38 -1 10 16 -6 52 -23 51 -10 0
-11 -2 -3 -6z"/>
<path d="M888 6153 c6 -2 18 -2 25 0 6 3 1 5 -13 5 -14 0 -19 -2 -12 -5z"/>
<path d="M1168 6153 c7 -3 16 -2 19 1 4 3 -2 6 -13 5 -11 0 -14 -3 -6 -6z"/>
<path d="M1814 6148 c-4 -6 -6 -34 -5 -61 1 -33 -2 -53 -11 -58 -9 -6 -9 -9
-1 -9 18 0 22 11 24 71 1 30 7 57 13 61 8 5 7 8 -1 8 -6 0 -15 -5 -19 -12z"/>
<path d="M2118 6153 c6 -2 18 -2 25 0 6 3 1 5 -13 5 -14 0 -19 -2 -12 -5z"/>
<path d="M2305 6143 c-10 -25 -12 -122 -2 -116 4 2 7 24 7 48 0 25 5 45 13 48
9 4 8 6 -2 6 -11 1 -11 4 -1 16 7 9 8 15 2 15 -5 0 -13 -8 -17 -17z"/>
<path d="M2554 6148 c-4 -6 -6 -34 -5 -61 1 -33 -2 -53 -11 -58 -9 -6 -9 -9
-1 -9 18 0 22 11 24 71 1 30 7 57 13 61 8 5 7 8 -1 8 -6 0 -15 -5 -19 -12z"/>
<path d="M2725 6143 c-10 -25 -12 -122 -2 -116 4 2 7 24 7 48 0 25 5 45 13 48
9 4 8 6 -2 6 -11 1 -11 4 -1 16 7 9 8 15 2 15 -5 0 -13 -8 -17 -17z"/>
<path d="M2796 6152 c-3 -5 1 -9 9 -9 8 0 12 4 9 9 -3 4 -7 8 -9 8 -2 0 -6 -4
-9 -8z"/>
<path d="M3058 6153 c7 -3 16 -2 19 1 4 3 -2 6 -13 5 -11 0 -14 -3 -6 -6z"/>
<path d="M3312 6130 c0 -19 2 -27 5 -17 2 9 2 25 0 35 -3 9 -5 1 -5 -18z"/>
<path d="M3598 6153 c7 -3 16 -2 19 1 4 3 -2 6 -13 5 -11 0 -14 -3 -6 -6z"/>
<path d="M3965 6149 c-3 -4 2 -6 10 -5 21 3 28 13 10 13 -9 0 -18 -4 -20 -8z"/>
<path d="M4058 6153 c7 -3 16 -2 19 1 4 3 -2 6 -13 5 -11 0 -14 -3 -6 -6z"/>
<path d="M4338 6153 c7 -3 16 -2 19 1 4 3 -2 6 -13 5 -11 0 -14 -3 -6 -6z"/>
<path d="M1580 6099 c0 -28 5 -39 19 -44 22 -7 50 3 53 19 7 57 5 62 -34 62
-37 1 -38 0 -38 -37z m64 9 c13 -22 -14 -54 -38 -45 -16 6 -22 48 -9 61 11 11
35 3 47 -16z"/>
<path d="M726 6115 c14 -11 15 -14 4 -15 -12 0 -13 -2 -1 -9 7 -5 11 -13 7
-19 -3 -6 -2 -13 4 -17 14 -9 13 48 -2 63 -7 7 -16 12 -22 12 -5 0 -1 -7 10
-15z"/>
<path d="M976 6121 c-3 -5 2 -7 13 -4 17 4 20 0 18 -23 -2 -18 -8 -29 -17 -29
-8 0 -14 6 -12 13 1 8 -2 11 -7 7 -18 -11 0 -35 25 -33 22 2 25 7 22 38 -3 34
-28 54 -42 31z"/>
<path d="M1436 6121 c-3 -5 2 -7 13 -4 17 4 20 0 18 -23 -2 -18 -8 -29 -17
-29 -8 0 -14 6 -12 13 1 8 -2 11 -7 7 -18 -11 0 -35 25 -33 22 2 25 7 22 38
-3 34 -28 54 -42 31z"/>
<path d="M1736 6115 c14 -11 15 -14 4 -15 -12 0 -13 -2 -1 -9 7 -5 11 -13 7
-19 -3 -6 -2 -13 4 -17 14 -9 13 48 -2 63 -7 7 -16 12 -22 12 -5 0 -1 -7 10
-15z"/>
<path d="M1966 6121 c-3 -5 2 -7 13 -4 17 4 20 0 18 -23 -2 -18 -8 -29 -17
-29 -8 0 -14 6 -12 13 1 8 -2 11 -7 7 -18 -11 0 -35 25 -33 22 2 25 7 22 38
-3 34 -28 54 -42 31z"/>
<path d="M2206 6121 c-3 -5 2 -7 13 -4 17 4 20 0 18 -23 -2 -18 -8 -29 -17
-29 -8 0 -14 6 -12 13 1 8 -2 11 -7 7 -18 -11 0 -35 25 -33 22 2 25 7 22 38
-3 34 -28 54 -42 31z"/>
<path d="M2376 6121 c-4 -5 3 -7 16 -3 17 4 20 2 15 -11 -4 -10 -2 -17 4 -17
6 0 9 8 7 17 -4 20 -33 29 -42 14z"/>
<path d="M2460 6126 c0 -9 30 -14 35 -6 4 6 -3 10 -14 10 -12 0 -21 -2 -21 -4z"/>
<path d="M2626 6121 c-3 -5 2 -7 13 -4 17 4 20 0 18 -23 -2 -18 -8 -29 -17
-29 -8 0 -14 6 -12 13 1 8 -2 11 -7 7 -18 -11 0 -35 25 -33 22 2 25 7 22 38
-3 34 -28 54 -42 31z"/>
<path d="M2876 6121 c-3 -5 2 -7 13 -4 17 4 20 0 18 -23 -2 -18 -8 -29 -17
-29 -8 0 -14 6 -12 13 1 8 -2 11 -7 7 -18 -11 0 -35 25 -33 22 2 25 7 22 38
-3 34 -28 54 -42 31z"/>
<path d="M2960 6126 c0 -9 30 -14 35 -6 4 6 -3 10 -14 10 -12 0 -21 -2 -21 -4z"/>
<path d="M3136 6121 c-3 -5 2 -7 13 -4 17 4 20 0 18 -23 -2 -18 -8 -29 -17
-29 -8 0 -14 6 -12 13 1 8 -2 11 -7 7 -18 -11 0 -35 25 -33 22 2 25 7 22 38
-3 34 -28 54 -42 31z"/>
<path d="M3220 6126 c0 -9 30 -14 35 -6 4 6 -3 10 -14 10 -12 0 -21 -2 -21 -4z"/>
<path d="M3466 6115 c14 -11 15 -14 4 -15 -12 0 -13 -2 -1 -9 7 -5 11 -13 7
-19 -3 -6 -2 -13 4 -17 14 -9 13 48 -2 63 -7 7 -16 12 -22 12 -5 0 -1 -7 10
-15z"/>
<path d="M3866 6121 c-3 -5 2 -7 13 -4 17 4 20 0 18 -23 -2 -18 -8 -29 -17
-29 -8 0 -14 6 -12 13 1 8 -2 11 -7 7 -18 -11 0 -35 25 -33 22 2 25 7 22 38
-3 34 -28 54 -42 31z"/>
<path d="M4166 6115 c14 -11 15 -14 4 -15 -12 0 -13 -2 -1 -9 7 -5 11 -13 7
-19 -3 -6 -2 -13 4 -17 14 -9 13 48 -2 63 -7 7 -16 12 -22 12 -5 0 -1 -7 10
-15z"/>
<path d="M3366 6094 c-9 -24 -7 -31 9 -38 11 -4 15 2 15 24 0 32 -14 40 -24
14z"/>
<path d="M692 6073 c2 -9 10 -18 18 -20 12 -4 13 -3 1 5 -7 5 -10 15 -7 21 4
6 2 11 -4 11 -6 0 -10 -8 -8 -17z"/>
<path d="M1702 6073 c2 -9 10 -18 18 -20 12 -4 13 -3 1 5 -7 5 -10 15 -7 21 4
6 2 11 -4 11 -6 0 -10 -8 -8 -17z"/>
<path d="M3432 6073 c2 -9 10 -18 18 -20 12 -4 13 -3 1 5 -7 5 -10 15 -7 21 4
6 2 11 -4 11 -6 0 -10 -8 -8 -17z"/>
<path d="M4132 6073 c2 -9 10 -18 18 -20 12 -4 13 -3 1 5 -7 5 -10 15 -7 21 4
6 2 11 -4 11 -6 0 -10 -8 -8 -17z"/>
<path d="M2377 6059 c7 -7 15 -10 18 -7 3 3 -2 9 -12 12 -14 6 -15 5 -6 -5z"/>
<path d="M3531 6034 c0 -11 3 -14 6 -6 3 7 2 16 -1 19 -3 4 -6 -2 -5 -13z"/>
<path d="M2465 6030 c-3 -5 -1 -10 4 -10 6 0 11 5 11 10 0 6 -2 10 -4 10 -3 0
-8 -4 -11 -10z"/>
<path d="M2965 6030 c-3 -5 -1 -10 4 -10 6 0 11 5 11 10 0 6 -2 10 -4 10 -3 0
-8 -4 -11 -10z"/>
<path d="M3225 6030 c-3 -5 -1 -10 4 -10 6 0 11 5 11 10 0 6 -2 10 -4 10 -3 0
-8 -4 -11 -10z"/>
<path d="M1526 5573 c21 -32 46 -72 56 -89 l19 -32 -44 -63 c-24 -35 -52 -76
-62 -91 l-17 -28 56 0 56 0 31 56 32 55 29 -51 c33 -59 39 -62 102 -58 l46 3
-61 91 -60 92 46 72 c66 103 66 100 6 100 -51 0 -51 0 -78 -49 l-28 -49 -27
49 -28 49 -56 0 -55 0 37 -57z"/>
<path d="M1955 5616 c-69 -30 -102 -100 -93 -197 9 -85 65 -140 150 -146 38
-3 63 1 88 14 35 18 80 74 80 99 0 19 -86 19 -97 0 -14 -24 -50 -37 -75 -27
-39 15 -52 39 -51 94 1 43 5 55 28 75 32 27 71 24 94 -8 10 -15 25 -20 58 -20
44 0 45 1 38 28 -20 80 -133 126 -220 88z"/>
<path d="M2220 5450 l0 -180 120 0 120 0 0 40 0 40 -70 0 -70 0 0 140 0 140
-50 0 -50 0 0 -180z"/>
<path d="M2600 5623 c-126 -47 -150 -245 -39 -323 72 -52 188 -31 237 43 37
56 39 153 3 211 -37 59 -136 93 -201 69z m110 -99 c22 -21 20 -128 -2 -150
-25 -25 -77 -22 -100 5 -20 26 -25 100 -7 132 20 39 75 45 109 13z"/>
<path d="M2862 5495 c5 -151 14 -174 79 -208 44 -23 129 -18 167 10 51 37 62
75 62 211 l0 122 -50 0 -50 0 0 -124 c0 -118 -1 -126 -22 -140 -30 -21 -44
-20 -68 4 -18 18 -20 33 -20 140 l0 120 -51 0 -52 0 5 -135z"/>
<path d="M3210 5449 l0 -181 103 4 c88 3 107 7 136 27 102 73 91 253 -19 309
-36 18 -61 22 -132 22 l-88 0 0 -181z m175 89 c26 -11 38 -41 38 -88 0 -67
-29 -100 -88 -100 -25 0 -25 1 -25 100 0 99 0 100 25 100 13 0 36 -5 50 -12z"/>
<path d="M1170 4970 l0 -180 120 0 120 0 0 40 0 40 -70 0 -70 0 0 140 0 140
-50 0 -50 0 0 -180z"/>
<path d="M1500 5013 c-23 -76 -49 -157 -56 -180 l-13 -43 53 0 c51 0 53 1 62
33 9 31 11 32 64 32 53 0 55 -1 64 -32 9 -32 10 -33 63 -33 39 0 53 3 50 13
-2 6 -28 87 -58 179 l-54 167 -66 1 -65 0 -44 -137z m119 10 c26 -99 26 -93
-9 -93 -31 0 -32 1 -26 33 4 17 10 47 13 65 3 17 7 32 9 32 2 0 8 -17 13 -37z"/>
<path d="M1822 5015 c5 -151 14 -174 79 -208 44 -23 129 -18 167 10 51 37 62
75 62 211 l0 122 -50 0 -50 0 0 -124 c0 -118 -1 -126 -22 -140 -30 -21 -44
-20 -68 4 -18 18 -20 33 -20 140 l0 120 -51 0 -52 0 5 -135z"/>
<path d="M2170 4970 l0 -180 51 0 51 0 -4 110 c-3 98 -2 107 11 82 7 -15 36
-64 63 -109 l49 -83 50 0 49 0 0 180 0 180 -45 0 -45 0 0 -112 0 -111 -23 44
c-12 24 -40 74 -62 111 l-40 68 -52 0 -53 0 0 -180z"/>
<path d="M2634 5136 c-96 -42 -130 -186 -68 -281 21 -32 91 -65 138 -65 49 0
112 34 136 73 30 49 26 57 -30 57 -27 0 -50 -4 -50 -10 0 -19 -47 -41 -74 -34
-70 17 -74 156 -5 184 24 10 33 10 54 -4 14 -9 25 -21 25 -26 0 -6 23 -10 50
-10 58 0 62 9 27 61 -41 62 -130 86 -203 55z"/>
<path d="M2900 4970 l0 -180 45 0 45 0 0 70 0 70 65 0 65 0 0 -70 0 -70 50 0
50 0 0 180 0 180 -50 0 -50 0 0 -70 0 -70 -65 0 -65 0 0 70 0 70 -45 0 -45 0
0 -180z"/>
<path d="M3260 4970 l0 -180 125 0 125 0 0 40 0 40 -80 0 -80 0 0 30 0 30 76
0 75 0 -3 38 -3 37 -72 3 -73 3 0 29 0 30 80 0 80 0 0 40 0 40 -125 0 -125 0
0 -180z"/>
<path d="M3550 4970 l0 -180 50 0 50 0 0 60 c0 82 20 80 64 -7 l26 -53 51 0
c28 0 49 4 47 8 -1 5 -16 34 -32 64 l-30 56 27 32 c49 58 29 158 -38 186 -21
9 -69 14 -125 14 l-90 0 0 -180z m164 94 c19 -7 21 -55 4 -72 -7 -7 -25 -12
-40 -12 -27 0 -28 2 -28 45 0 41 2 45 24 45 13 0 31 -3 40 -6z"/>
<path d="M4507 3983 c-4 -3 -7 -168 -7 -365 l0 -358 -1999 0 c-1323 0 -2002
-3 -2006 -10 -4 -7 668 -10 2009 -10 l2016 0 0 375 c0 206 -1 375 -3 375 -2 0
-7 -3 -10 -7z"/>
<path d="M1582 3674 c-19 -13 -22 -24 -20 -57 4 -52 39 -77 85 -61 34 11 44
44 14 44 -11 0 -22 -4 -26 -10 -11 -18 -35 2 -35 30 0 28 24 48 35 30 10 -16
45 -12 45 5 0 33 -61 45 -98 19z"/>
<path d="M1720 3620 c0 -63 2 -70 19 -70 14 0 21 8 23 28 l4 27 14 -27 c7 -16
21 -28 32 -28 21 0 22 4 7 32 -8 14 -8 23 0 31 32 32 -3 77 -60 77 l-39 0 0
-70z m68 22 c2 -7 -3 -12 -12 -12 -9 0 -16 7 -16 16 0 17 22 14 28 -4z"/>
<path d="M1870 3620 l0 -70 50 0 c38 0 50 4 50 15 0 10 -11 15 -35 15 -24 0
-35 5 -35 15 0 10 10 15 30 15 20 0 30 5 30 15 0 10 -10 15 -30 15 -16 0 -30
5 -30 10 0 6 16 10 35 10 24 0 35 5 35 15 0 11 -12 15 -50 15 l-50 0 0 -70z"/>
<path d="M2026 3633 c-10 -32 -21 -64 -23 -70 -3 -8 3 -13 16 -13 12 0 24 7
27 15 4 8 14 15 24 15 10 0 20 -7 24 -15 3 -8 15 -15 27 -15 13 0 19 5 16 13
-2 6 -13 38 -23 70 -16 50 -21 57 -44 57 -23 0 -28 -7 -44 -57z m54 -8 c0 -8
-4 -15 -10 -15 -5 0 -10 7 -10 15 0 8 5 15 10 15 6 0 10 -7 10 -15z"/>
<path d="M2150 3675 c0 -8 9 -15 20 -15 18 0 20 -7 20 -55 0 -48 2 -55 20 -55
18 0 20 7 20 55 0 48 2 55 20 55 11 0 20 7 20 15 0 12 -13 15 -60 15 -47 0
-60 -3 -60 -15z"/>
<path d="M2300 3620 l0 -70 50 0 c38 0 50 4 50 15 0 10 -10 15 -30 15 -20 0
-30 5 -30 15 0 10 10 15 30 15 20 0 30 5 30 15 0 10 -10 15 -30 15 -16 0 -30
5 -30 10 0 6 14 10 30 10 20 0 30 5 30 15 0 11 -12 15 -50 15 l-50 0 0 -70z"/>
<path d="M2500 3620 c0 -63 2 -70 20 -70 17 0 20 7 21 43 l0 42 22 -42 c15
-32 27 -43 44 -43 22 0 23 4 23 70 0 63 -2 70 -20 70 -17 0 -20 -7 -20 -42 l0
-43 -26 43 c-16 26 -32 42 -45 42 -17 0 -19 -7 -19 -70z"/>
<path d="M2660 3620 l0 -70 50 0 c38 0 50 4 50 15 0 10 -10 15 -30 15 -20 0
-30 5 -30 15 0 10 10 15 30 15 20 0 30 5 30 15 0 10 -10 15 -30 15 -16 0 -30
5 -30 10 0 6 14 10 30 10 20 0 30 5 30 15 0 11 -12 15 -50 15 l-50 0 0 -70z"/>
<path d="M2800 3685 c0 -3 7 -35 16 -70 14 -56 20 -65 39 -65 19 0 25 7 31 43
l8 42 9 -42 c8 -35 14 -43 32 -43 19 0 25 9 39 65 20 79 20 75 -3 75 -15 0
-22 -10 -29 -42 l-9 -43 -8 43 c-6 36 -11 43 -28 40 -14 -2 -24 -15 -32 -43
l-11 -40 -7 43 c-6 33 -11 42 -27 42 -11 0 -20 -2 -20 -5z"/>
<path d="M3082 3678 c3 -7 14 -39 24 -70 16 -51 21 -58 44 -58 23 0 28 7 44
58 10 31 21 63 23 70 3 7 -3 12 -16 12 -16 0 -24 -11 -35 -47 -8 -28 -16 -42
-19 -33 -3 8 -9 29 -14 45 -7 20 -17 31 -33 33 -16 3 -21 0 -18 -10z"/>
<path d="M3260 3620 c0 -56 3 -70 15 -70 11 0 15 12 16 48 l1 47 16 -47 c19
-60 44 -64 59 -10 l10 37 2 -37 c1 -31 5 -38 21 -38 18 0 20 7 20 70 l0 70
-30 0 c-26 0 -31 -5 -41 -42 l-12 -43 -9 43 c-8 38 -12 42 -39 42 l-29 0 0
-70z"/>
<path d="M2050 2646 c0 -2 9 -6 20 -9 11 -3 18 -1 14 4 -5 9 -34 13 -34 5z"/>
<path d="M2183 2610 c0 -25 2 -35 4 -22 2 12 2 32 0 45 -2 12 -4 2 -4 -23z"/>
<path d="M2212 2610 c1 -45 1 -45 8 -10 4 19 8 31 9 25 1 -5 10 -21 21 -35
l20 -25 -2 45 c-1 32 -2 37 -5 16 l-5 -29 -23 29 -24 29 1 -45z"/>
<path d="M2292 2610 c-1 -37 1 -41 9 -22 5 15 13 21 21 16 7 -4 10 -3 5 1 -4
5 1 18 10 29 14 17 12 16 -9 -2 l-26 -24 -5 24 c-2 12 -5 3 -5 -22z"/>
<path d="M2400 2611 c0 -23 2 -41 4 -41 8 0 12 71 4 76 -4 3 -8 -13 -8 -35z"/>
<path d="M2450 2618 c0 -30 -1 -31 -16 -12 -15 18 -15 18 -4 -3 18 -39 30 -36
30 6 0 23 -2 41 -5 41 -3 0 -5 -14 -5 -32z"/>
<path d="M2480 2610 c0 -37 2 -40 28 -39 23 2 24 2 5 6 -27 5 -30 20 -5 26 16
4 16 5 0 6 -26 2 -22 29 5 34 19 4 18 4 -5 6 -26 1 -28 -2 -28 -39z"/>
<path d="M2553 2643 c9 -2 25 -2 35 0 9 3 1 5 -18 5 -19 0 -27 -2 -17 -5z"/>
<path d="M2657 2643 c-4 -3 -7 -11 -7 -17 0 -6 5 -5 12 2 6 6 9 14 7 17 -3 3
-9 2 -12 -2z"/>
<path d="M2736 2642 c-3 -5 5 -8 17 -8 17 1 22 -5 22 -24 0 -20 -5 -25 -23
-24 -16 0 -20 -2 -12 -10 13 -13 44 4 48 28 6 31 -37 62 -52 38z"/>
<path d="M2811 2608 c1 -24 3 -35 6 -25 6 22 19 22 32 0 8 -14 9 -13 8 8 -2
19 -6 25 -19 21 -12 -3 -18 1 -18 13 0 12 6 16 20 12 11 -3 18 -1 14 4 -3 5
-14 9 -25 9 -16 0 -19 -7 -18 -42z"/>
<path d="M2882 2610 c0 -25 2 -38 5 -30 3 8 13 24 22 35 15 18 15 19 -1 7 -14
-11 -17 -10 -21 10 -2 13 -5 3 -5 -22z"/>
<path d="M2978 2643 c7 -3 16 -2 19 1 4 3 -2 6 -13 5 -11 0 -14 -3 -6 -6z"/>
<path d="M2032 2610 c0 -14 2 -19 5 -12 2 6 2 18 0 25 -3 6 -5 1 -5 -13z"/>
<path d="M2621 2614 c0 -11 3 -14 6 -6 3 7 2 16 -1 19 -3 4 -6 -2 -5 -13z"/>
<path d="M1991 2604 c0 -11 3 -14 6 -6 3 7 2 16 -1 19 -3 4 -6 -2 -5 -13z"/>
<path d="M2121 2604 c0 -11 3 -14 6 -6 3 7 2 16 -1 19 -3 4 -6 -2 -5 -13z"/>
<path d="M2670 2605 c0 -5 4 -16 9 -23 6 -11 10 -10 15 4 3 9 4 19 1 22 -3 3
-5 -1 -5 -9 0 -11 -2 -11 -10 1 -5 8 -10 11 -10 5z"/>
<path d="M2996 2596 c6 -16 4 -18 -19 -14 -15 3 -24 1 -21 -3 7 -13 42 -11 50
2 3 6 1 16 -5 22 -9 9 -10 7 -5 -7z"/>
<path d="M2637 2593 c-4 -3 -7 -11 -7 -17 0 -6 5 -5 12 2 6 6 9 14 7 17 -3 3
-9 2 -12 -2z"/>
<path d="M2910 2596 c0 -2 8 -10 18 -17 15 -13 16 -12 3 4 -13 16 -21 21 -21
13z"/>
<path d="M2065 2580 c-16 -7 -17 -9 -3 -9 9 -1 20 4 23 9 7 11 7 11 -20 0z"/>
</g>
</svg>
